# xmcd
#
# Track frame offsets: 
#        150
#        21212
#        50527
#        73492
#        88375
#        120977
#        142727
#        160652
#        181897
#        206475
#
# Disc length: 2899 seconds
#
# Revision: 4
# Processed by: cddbd v1.5.2PL0 Copyright (c) Steve Scherf et al.
# Submitted via: ExactAudioCopy v0.95b4
#
DISCID=870b510a
DTITLE=George Michael - Listen Without Prejudice
DYEAR=1990
DGENRE=Pop
TTITLE0=Praying for Time
TTITLE1=Freedom 90
TTITLE2=They Won't Go When I Go
TTITLE3=Something To Save
TTITLE4=Cowboys and Angels
TTITLE5=Waiting For That Day
TTITLE6=Mothers Pride
TTITLE7=Heal The Pain
TTITLE8=Soul Free
TTITLE9=Waiting (Reprise)
EXTD=
EXTT0=
EXTT1=
EXTT2=
EXTT3=
EXTT4=
EXTT5=
EXTT6=
EXTT7=
EXTT8=
EXTT9=
PLAYORDER=
